<?xml version="1.0" encoding="UTF-8"?>
<svg version="1.1" xmlns="http://www.w3.org/2000/svg" width="32" height="32">
<path d="M0 0 C4.12974965 2.06487482 6.29527061 3.7458555 8 8 C8.7121481 13.01815989 8.52912753 16.94174495 6.25 21.5 C3.55891188 24.49009791 1.62679122 25.76913524 -2.3671875 26.3359375 C-8.08522757 26.42500354 -11.56237048 25.99386657 -16 22 C-18.73957509 17.559999 -18.65531007 13.06666568 -18 8 C-13.98902931 -0.02194138 -8.43057162 -1.09038939 0 0 Z M-14 7 C-15.60086627 10.20173254 -15.49917089 13.52577059 -15 17 C-13.20636089 19.8100346 -11.98119065 21.50940468 -9 23 C-3.18654053 23.53365513 -3.18654053 23.53365513 1.9375 21.125 C5.09695358 17.8698054 5.33421243 15.57586762 5.29296875 11.0390625 C4.83745033 7.86865433 3.24684343 6.1807598 1 4 C-4.71872108 1.14063946 -9.77770087 2.64975241 -14 7 Z " fill="#AFAFAF" transform="translate(21,3)"/>
<path d="M0 0 C2.05078125 0.03255208 4.1015625 0.06510417 6.15234375 0.09765625 C6.81234375 1.41765625 7.47234375 2.73765625 8.15234375 4.09765625 C6.83234375 4.09765625 5.51234375 4.09765625 4.15234375 4.09765625 C2.48008646 4.40170303 0.81154271 4.72894537 -0.84765625 5.09765625 C-0.51765625 6.08765625 -0.18765625 7.07765625 0.15234375 8.09765625 C3.61734375 7.60265625 3.61734375 7.60265625 7.15234375 7.09765625 C7.48234375 7.75765625 7.81234375 8.41765625 8.15234375 9.09765625 C7.16234375 10.58265625 7.16234375 10.58265625 6.15234375 12.09765625 C3.06855424 12.48924857 1.09905946 12.73381076 -1.84765625 12.09765625 C-3.97265625 9.97265625 -3.97265625 9.97265625 -4.84765625 7.09765625 C-3.24936847 0.17174252 -3.24936847 0.17174252 0 0 Z " fill="#ACACAC" transform="translate(13.84765625,9.90234375)"/>
</svg>
